<svg xmlns="http://www.w3.org/2000/svg" viewBox="0 0 1200 900">
  <!-- Background with stars -->
  <rect width="1200" height="900" fill="#0a0a2a"/>
  <g id="stars">
    <!-- Small stars -->
    <g fill="#ffffff">
      <circle cx="100" cy="200" r="1" opacity="0.8"/>
      <circle cx="300" cy="150" r="1.5" opacity="0.7"/>
      <circle cx="500" cy="100" r="1" opacity="0.9"/>
      <circle cx="700" cy="250" r="1.2" opacity="0.8"/>
      <circle cx="900" cy="180" r="1" opacity="0.7"/>
      <circle cx="1100" cy="220" r="1.5" opacity="0.9"/>
      <circle cx="150" cy="300" r="1" opacity="0.8"/>
      <circle cx="350" cy="350" r="1.2" opacity="0.7"/>
      <circle cx="550" cy="400" r="1" opacity="0.9"/>
      <circle cx="750" cy="450" r="1.5" opacity="0.8"/>
      <circle cx="950" cy="500" r="1" opacity="0.7"/>
      <circle cx="1150" cy="550" r="1.2" opacity="0.9"/>
      <circle cx="200" cy="600" r="1" opacity="0.8"/>
      <circle cx="400" cy="650" r="1.5" opacity="0.7"/>
      <circle cx="600" cy="700" r="1" opacity="0.9"/>
      <circle cx="800" cy="750" r="1.2" opacity="0.8"/>
      <circle cx="1000" cy="800" r="1" opacity="0.7"/>
      <circle cx="1100" cy="850" r="1.5" opacity="0.9"/>
    </g>
    <!-- Medium stars -->
    <g fill="#ffffff">
      <circle cx="200" cy="100" r="2" opacity="0.9"/>
      <circle cx="400" cy="200" r="2.2" opacity="0.8"/>
      <circle cx="600" cy="150" r="2" opacity="0.9"/>
      <circle cx="800" cy="100" r="2.5" opacity="0.8"/>
      <circle cx="1000" cy="250" r="2" opacity="0.9"/>
      <circle cx="250" cy="350" r="2.2" opacity="0.8"/>
      <circle cx="450" cy="400" r="2" opacity="0.9"/>
      <circle cx="650" cy="450" r="2.5" opacity="0.8"/>
      <circle cx="850" cy="500" r="2" opacity="0.9"/>
      <circle cx="1050" cy="550" r="2.2" opacity="0.8"/>
      <circle cx="150" cy="650" r="2" opacity="0.9"/>
      <circle cx="350" cy="700" r="2.5" opacity="0.8"/>
      <circle cx="550" cy="750" r="2" opacity="0.9"/>
      <circle cx="750" cy="800" r="2.2" opacity="0.8"/>
      <circle cx="950" cy="850" r="2" opacity="0.9"/>
    </g>
  </g>
  
  <!-- Planet -->
  <circle cx="900" cy="200" r="70" fill="#4a1f82"/>
  <circle cx="870" cy="180" r="25" fill="#7133c2" opacity="0.7"/>
  <circle cx="930" cy="210" r="20" fill="#7133c2" opacity="0.5"/>
  <circle cx="890" cy="230" r="15" fill="#7133c2" opacity="0.6"/>
  
  <!-- Nebula effect -->
  <ellipse cx="300" cy="600" rx="250" ry="180" fill="#5f3a94" opacity="0.3"/>
  <ellipse cx="320" cy="590" rx="200" ry="150" fill="#9f4bcc" opacity="0.2"/>
  <ellipse cx="280" cy="610" rx="150" ry="100" fill="#c174e8" opacity="0.1"/>
  
  <!-- Header -->
  <rect x="0" y="0" width="1200" height="100" fill="#0a0a2a"/>
  <rect x="20" y="30" width="180" height="40" rx="5" fill="#ffffff" opacity="0.1"/>
  <text x="110" y="57" font-family="Arial" font-size="20" fill="#ffffff" text-anchor="middle">COSMIC VOYAGE</text>
  <rect x="700" y="35" width="80" height="30" rx="15" fill="#ffffff" opacity="0.1"/>
  <rect x="800" y="35" width="80" height="30" rx="15" fill="#ffffff" opacity="0.1"/>
  <rect x="900" y="35" width="80" height="30" rx="15" fill="#ffffff" opacity="0.1"/>
  <rect x="1000" y="35" width="80" height="30" rx="15" fill="#ffffff" opacity="0.1"/>
  <rect x="1100" y="35" width="80" height="30" rx="15" fill="#7b4bd6"/>
  <text x="1140" y="55" font-family="Arial" font-size="14" fill="#ffffff" text-anchor="middle">JOIN</text>
  
  <!-- Hero Section -->
  <text x="120" y="250" font-family="Arial" font-size="48" fill="#ffffff" font-weight="bold">EXPLORE THE</text>
  <text x="120" y="310" font-family="Arial" font-size="48" fill="#8a56e8" font-weight="bold">INFINITE COSMOS</text>
  <text x="120" y="360" font-family="Arial" font-size="16" fill="#cccccc" width="500">A premium website template for space enthusiasts, astronomy blogs, and sci-fi projects.</text>
  <rect x="120" y="390" width="150" height="50" rx="25" fill="#7b4bd6"/>
  <text x="195" y="422" font-family="Arial" font-size="16" fill="#ffffff" text-anchor="middle">GET STARTED</text>
  <rect x="290" y="390" width="150" height="50" rx="25" fill="#ffffff" opacity="0.1"/>
  <text x="365" y="422" font-family="Arial" font-size="16" fill="#ffffff" text-anchor="middle">LEARN MORE</text>
  
  <!-- Features Section -->
  <rect x="120" y="500" width="250" height="150" rx="10" fill="#ffffff" opacity="0.05"/>
  <circle cx="150" cy="530" r="15" fill="#7b4bd6"/>
  <text x="250" y="535" font-family="Arial" font-size="18" fill="#ffffff" text-anchor="middle">Responsive Design</text>
  
  <rect x="420" y="500" width="250" height="150" rx="10" fill="#ffffff" opacity="0.05"/>
  <circle cx="450" cy="530" r="15" fill="#7b4bd6"/>
  <text x="550" y="535" font-family="Arial" font-size="18" fill="#ffffff" text-anchor="middle">Dark Mode Ready</text>
  
  <rect x="720" y="500" width="250" height="150" rx="10" fill="#ffffff" opacity="0.05"/>
  <circle cx="750" cy="530" r="15" fill="#7b4bd6"/>
  <text x="850" y="535" font-family="Arial" font-size="18" fill="#ffffff" text-anchor="middle">Animation Effects</text>
  
  <!-- Price Tag -->
  <rect x="900" y="700" width="280" height="180" rx="10" fill="#14123d"/>
  <text x="1040" y="735" font-family="Arial" font-size="20" fill="#ffffff" text-anchor="middle">PREMIUM TEMPLATE</text>
  <text x="1040" y="785" font-family="Arial" font-size="36" fill="#ffffff" text-anchor="middle" font-weight="bold">$79.99</text>
  <text x="1040" y="815" font-family="Arial" font-size="14" fill="#aaaaaa" text-anchor="middle">One-time payment, lifetime updates</text>
  <rect x="950" y="835" width="180" height="40" rx="20" fill="#7b4bd6"/>
  <text x="1040" y="860" font-family="Arial" font-size="16" fill="#ffffff" text-anchor="middle">BUY NOW</text>
  
  <!-- Footer -->
  <rect x="0" y="850" width="1200" height="50" fill="#080818"/>
  <text x="600" y="880" font-family="Arial" font-size="14" fill="#555555" text-anchor="middle">© 2025 Cosmic Voyage Theme. All Rights Reserved.</text>
</svg>
