<svg xmlns="http://www.w3.org/2000/svg" viewBox="0 0 1200 900">
  <!-- Sky background -->
  <linearGradient id="skyGradient" x1="0%" y1="0%" x2="0%" y2="100%">
    <stop offset="0%" style="stop-color:#6ab7ff;stop-opacity:1" />
    <stop offset="100%" style="stop-color:#c9e9ff;stop-opacity:1" />
  </linearGradient>
  <rect width="1200" height="900" fill="url(#skyGradient)"/>
  
  <!-- Sun -->
  <circle cx="1000" cy="150" r="60" fill="#ffd86b"/>
  <circle cx="1000" cy="150" r="70" fill="#ffd86b" opacity="0.3"/>
  <circle cx="1000" cy="150" r="80" fill="#ffd86b" opacity="0.1"/>
  
  <!-- Mountains in background -->
  <path d="M0,400 L150,300 L300,380 L450,280 L600,350 L750,250 L900,330 L1050,280 L1200,350 L1200,900 L0,900 Z" fill="#6a8f70"/>
  
  <!-- Hills in midground -->
  <path d="M0,450 L200,420 L400,480 L600,430 L800,470 L1000,440 L1200,460 L1200,900 L0,900 Z" fill="#8bc490"/>
  
  <!-- Foreground landscape -->
  <path d="M0,550 L120,530 L240,550 L360,530 L480,560 L600,530 L720,560 L840,530 L960,550 L1080,530 L1200,550 L1200,900 L0,900 Z" fill="#a0d9a6"/>
  
  <!-- Trees -->
  <g transform="translate(200,500) scale(0.8)">
    <rect x="-10" y="0" width="20" height="60" fill="#7d4b2a"/>
    <path d="M-40,-60 L0,-100 L40,-60 L-40,-60 Z" fill="#388e3c"/>
    <path d="M-50,-30 L0,-70 L50,-30 L-50,-30 Z" fill="#4caf50"/>
    <path d="M-60,0 L0,-40 L60,0 L-60,0 Z" fill="#66bb6a"/>
  </g>
  
  <g transform="translate(350,480) scale(0.7)">
    <rect x="-10" y="0" width="20" height="60" fill="#7d4b2a"/>
    <path d="M-40,-60 L0,-100 L40,-60 L-40,-60 Z" fill="#388e3c"/>
    <path d="M-50,-30 L0,-70 L50,-30 L-50,-30 Z" fill="#4caf50"/>
    <path d="M-60,0 L0,-40 L60,0 L-60,0 Z" fill="#66bb6a"/>
  </g>
  
  <g transform="translate(900,470) scale(0.9)">
    <rect x="-10" y="0" width="20" height="60" fill="#7d4b2a"/>
    <path d="M-40,-60 L0,-100 L40,-60 L-40,-60 Z" fill="#388e3c"/>
    <path d="M-50,-30 L0,-70 L50,-30 L-50,-30 Z" fill="#4caf50"/>
    <path d="M-60,0 L0,-40 L60,0 L-60,0 Z" fill="#66bb6a"/>
  </g>
  
  <g transform="translate(1050,490) scale(0.75)">
    <rect x="-10" y="0" width="20" height="60" fill="#7d4b2a"/>
    <path d="M-40,-60 L0,-100 L40,-60 L-40,-60 Z" fill="#388e3c"/>
    <path d="M-50,-30 L0,-70 L50,-30 L-50,-30 Z" fill="#4caf50"/>
    <path d="M-60,0 L0,-40 L60,0 L-60,0 Z" fill="#66bb6a"/>
  </g>
  
  <!-- Header -->
  <rect x="0" y="0" width="1200" height="100" fill="#ffffff" opacity="0.8"/>
  <circle cx="60" cy="50" r="30" fill="#4caf50"/>
  <text x="160" y="57" font-family="Arial" font-size="24" fill="#388e3c" font-weight="bold">ECO HAVEN</text>
  <rect x="700" y="35" width="80" height="30" rx="15" fill="#f5f5f5"/>
  <rect x="800" y="35" width="80" height="30" rx="15" fill="#f5f5f5"/>
  <rect x="900" y="35" width="80" height="30" rx="15" fill="#f5f5f5"/>
  <rect x="1000" y="35" width="80" height="30" rx="15" fill="#f5f5f5"/>
  <rect x="1100" y="35" width="80" height="30" rx="15" fill="#4caf50"/>
  <text x="1140" y="55" font-family="Arial" font-size="14" fill="#ffffff" text-anchor="middle">JOIN</text>
  
  <!-- Hero Section -->
  <rect x="70" y="170" width="500" height="280" rx="10" fill="#ffffff" opacity="0.9"/>
  <text x="120" y="230" font-family="Arial" font-size="36" fill="#2e7d32" font-weight="bold">SUSTAINABLE</text>
  <text x="120" y="280" font-family="Arial" font-size="36" fill="#2e7d32" font-weight="bold">LIVING STARTS HERE</text>
  <text x="120" y="330" font-family="Arial" font-size="16" fill="#555555" width="400">A premium website template for eco-friendly businesses, sustainability blogs, and green initiatives.</text>
  <rect x="120" y="370" width="150" height="50" rx="25" fill="#4caf50"/>
  <text x="195" y="402" font-family="Arial" font-size="16" fill="#ffffff" text-anchor="middle">GET STARTED</text>
  <rect x="290" y="370" width="150" height="50" rx="25" fill="#e8f5e9" stroke="#4caf50" stroke-width="1"/>
  <text x="365" y="402" font-family="Arial" font-size="16" fill="#4caf50" text-anchor="middle">LEARN MORE</text>
  
  <!-- Features Section -->
  <rect x="180" y="520" width="250" height="150" rx="10" fill="#ffffff" opacity="0.9"/>
  <circle cx="210" cy="550" r="15" fill="#4caf50"/>
  <text x="305" y="555" font-family="Arial" font-size="18" fill="#388e3c" text-anchor="middle">Eco Widgets</text>
  
  <rect x="480" y="520" width="250" height="150" rx="10" fill="#ffffff" opacity="0.9"/>
  <circle cx="510" cy="550" r="15" fill="#4caf50"/>
  <text x="605" y="555" font-family="Arial" font-size="18" fill="#388e3c" text-anchor="middle">Green Analytics</text>
  
  <rect x="780" y="520" width="250" height="150" rx="10" fill="#ffffff" opacity="0.9"/>
  <circle cx="810" cy="550" r="15" fill="#4caf50"/>
  <text x="905" y="555" font-family="Arial" font-size="18" fill="#388e3c" text-anchor="middle">Carbon Calculator</text>
  
  <!-- Price Tag -->
  <rect x="850" y="700" width="280" height="180" rx="10" fill="#ffffff" opacity="0.9"/>
  <text x="990" y="735" font-family="Arial" font-size="20" fill="#2e7d32" text-anchor="middle">ECO-FRIENDLY THEME</text>
  <text x="990" y="785" font-family="Arial" font-size="36" fill="#2e7d32" text-anchor="middle" font-weight="bold">$64.99</text>
  <text x="990" y="815" font-family="Arial" font-size="14" fill="#757575" text-anchor="middle">One-time payment, 5% goes to tree planting</text>
  <rect x="900" y="835" width="180" height="40" rx="20" fill="#4caf50"/>
  <text x="990" y="860" font-family="Arial" font-size="16" fill="#ffffff" text-anchor="middle">PURCHASE</text>
  
  <!-- Footer -->
  <rect x="0" y="850" width="1200" height="50" fill="#e8f5e9"/>
  <text x="600" y="880" font-family="Arial" font-size="14" fill="#757575" text-anchor="middle">© 2025 Eco Haven Theme. All Rights Reserved.</text>
</svg>
